<?xml version="1.0" standalone="no"?>
<!DOCTYPE svg PUBLIC "-//W3C//DTD SVG 20010904//EN"
 "http://www.w3.org/TR/2001/REC-SVG-20010904/DTD/svg10.dtd">
<svg version="1.0" xmlns="http://www.w3.org/2000/svg"
 width="350.000000pt" height="350.000000pt" viewBox="0 0 350.000000 350.000000"
 preserveAspectRatio="xMidYMid meet">
<metadata>
Created by potrace 1.14, written by Peter Selinger 2001-2017
</metadata>
<g transform="translate(0.000000,350.000000) scale(0.100000,-0.100000)"
fill="#000000" stroke="none">
<path d="M796 2926 c-243 -362 -325 -778 -235 -1195 23 -103 64 -243 82 -276
6 -11 12 -22 12 -25 6 -33 129 -246 184 -318 106 -140 265 -289 371 -350 25
-14 59 -36 77 -48 17 -13 69 -40 115 -60 45 -20 106 -47 135 -60 29 -13 81
-31 117 -41 65 -17 67 -17 143 6 43 12 96 31 118 41 310 144 374 187 561 375
157 157 258 324 346 570 69 193 82 271 82 510 1 185 -2 223 -22 315 -13 58
-30 119 -37 135 -8 17 -30 72 -50 124 -33 86 -82 189 -96 201 -3 3 -22 34 -43
68 -64 111 -64 112 -111 95 -180 -63 -600 -63 -786 1 -36 13 -47 12 -83 0
-180 -64 -600 -64 -785 0 l-40 13 -55 -81z m1022 -56 c198 -43 473 -45 653 -4
l72 16 18 -23 c35 -46 157 -305 183 -388 15 -46 34 -124 43 -175 19 -110 21
-338 4 -451 -48 -314 -212 -631 -433 -840 -99 -93 -253 -200 -352 -245 -34
-15 -86 -39 -116 -53 -30 -14 -81 -33 -113 -43 -57 -18 -58 -18 -129 5 -73 24
-318 135 -328 149 -3 5 -32 25 -65 45 -203 123 -420 393 -515 640 -41 106 -86
269 -99 354 -14 90 -14 315 -1 407 20 136 91 334 171 481 80 145 71 138 156
120 192 -40 474 -38 643 4 98 24 100 24 208 1z"/>
<path d="M1003 2590 c12 -14 51 -55 86 -92 l65 -68 296 0 c403 -1 478 -16 612
-124 78 -63 130 -131 167 -221 60 -143 65 -266 16 -399 -48 -132 -113 -217
-223 -289 -130 -86 -204 -98 -591 -97 l-274 1 -64 -63 c-36 -35 -74 -76 -85
-91 l-20 -28 438 3 c433 3 440 4 504 27 135 49 219 100 309 190 73 73 94 102
139 191 111 221 111 446 1 670 -44 89 -65 117 -139 191 -74 75 -102 95 -189
138 -57 28 -119 56 -139 63 -26 8 -176 13 -484 17 l-447 6 22 -25z"/>
<path d="M1242 2148 l-92 -93 160 3 160 3 0 -193 0 -193 -162 3 -163 3 91 -92
92 -91 223 0 c253 1 293 9 375 71 100 75 150 187 142 320 -10 176 -121 303
-296 340 -29 6 -139 11 -245 11 l-192 0 -93 -92z m563 -126 c106 -73 111 -229
10 -306 -28 -22 -53 -30 -101 -35 -36 -4 -67 -5 -69 -2 -3 2 -5 90 -5 194 l0
190 63 -7 c44 -4 73 -14 102 -34z"/>
</g>
</svg>
